<svg xmlns="http://www.w3.org/2000/svg" xmlns:xlink="http://www.w3.org/1999/xlink" width="1920" zoomAndPan="magnify" viewBox="0 0 1440 809.999993" height="1080" preserveAspectRatio="xMidYMid meet" version="1.0"><defs><g/><clipPath id="cb250b1a28"><path d="M 1090 233 L 1176 233 L 1176 320 L 1090 320 Z M 1090 233 " clip-rule="nonzero"/></clipPath><clipPath id="ccb271a383"><path d="M 1073.058594 246.734375 L 1133.644531 190.734375 L 1217.132812 281.0625 L 1156.546875 337.058594 Z M 1073.058594 246.734375 " clip-rule="nonzero"/></clipPath><clipPath id="576408719c"><path d="M 1073.058594 246.734375 L 1133.644531 190.734375 L 1217.132812 281.0625 L 1156.546875 337.058594 Z M 1073.058594 246.734375 " clip-rule="nonzero"/></clipPath><clipPath id="ca9818a37e"><path d="M 1134 196 L 1220 196 L 1220 283 L 1134 283 Z M 1134 196 " clip-rule="nonzero"/></clipPath><clipPath id="87b86b1cf5"><path d="M 1116.269531 209.691406 L 1176.851562 153.691406 L 1260.339844 244.019531 L 1199.753906 300.015625 Z M 1116.269531 209.691406 " clip-rule="nonzero"/></clipPath><clipPath id="c6e7092cdd"><path d="M 1116.269531 209.691406 L 1176.851562 153.691406 L 1260.339844 244.019531 L 1199.753906 300.015625 Z M 1116.269531 209.691406 " clip-rule="nonzero"/></clipPath><clipPath id="b5dd45ae1a"><path d="M 198.90625 252 L 405 252 L 405 398 L 198.90625 398 Z M 198.90625 252 " clip-rule="nonzero"/></clipPath><clipPath id="d36f222122"><path d="M 198.90625 189.511719 L 198.90625 447.242188 C 198.90625 478.308594 224.089844 503.492188 255.15625 503.492188 L 462.90625 503.492188 C 493.972656 503.492188 519.15625 478.308594 519.15625 447.242188 L 519.15625 189.511719 C 519.15625 158.445312 493.972656 133.261719 462.90625 133.261719 L 255.15625 133.261719 C 224.089844 133.261719 198.90625 158.445312 198.90625 189.511719 Z M 198.90625 189.511719 " clip-rule="nonzero"/></clipPath><clipPath id="893aa0a284"><path d="M 313 239 L 519.15625 239 L 519.15625 385 L 313 385 Z M 313 239 " clip-rule="nonzero"/></clipPath><clipPath id="8406a571fa"><path d="M 198.90625 189.511719 L 198.90625 447.242188 C 198.90625 478.308594 224.089844 503.492188 255.15625 503.492188 L 462.90625 503.492188 C 493.972656 503.492188 519.15625 478.308594 519.15625 447.242188 L 519.15625 189.511719 C 519.15625 158.445312 493.972656 133.261719 462.90625 133.261719 L 255.15625 133.261719 C 224.089844 133.261719 198.90625 158.445312 198.90625 189.511719 Z M 198.90625 189.511719 " clip-rule="nonzero"/></clipPath><clipPath id="2d7ce62402"><path d="M 198.90625 358 L 497 358 L 497 503.761719 L 198.90625 503.761719 Z M 198.90625 358 " clip-rule="nonzero"/></clipPath><clipPath id="70e052bacb"><path d="M 198.90625 189.511719 L 198.90625 447.242188 C 198.90625 478.308594 224.089844 503.492188 255.15625 503.492188 L 462.90625 503.492188 C 493.972656 503.492188 519.15625 478.308594 519.15625 447.242188 L 519.15625 189.511719 C 519.15625 158.445312 493.972656 133.261719 462.90625 133.261719 L 255.15625 133.261719 C 224.089844 133.261719 198.90625 158.445312 198.90625 189.511719 Z M 198.90625 189.511719 " clip-rule="nonzero"/></clipPath><clipPath id="63fc8898ab"><path d="M 221 133.261719 L 519.15625 133.261719 L 519.15625 279 L 221 279 Z M 221 133.261719 " clip-rule="nonzero"/></clipPath><clipPath id="b731b96da2"><path d="M 198.90625 189.511719 L 198.90625 447.242188 C 198.90625 478.308594 224.089844 503.492188 255.15625 503.492188 L 462.90625 503.492188 C 493.972656 503.492188 519.15625 478.308594 519.15625 447.242188 L 519.15625 189.511719 C 519.15625 158.445312 493.972656 133.261719 462.90625 133.261719 L 255.15625 133.261719 C 224.089844 133.261719 198.90625 158.445312 198.90625 189.511719 Z M 198.90625 189.511719 " clip-rule="nonzero"/></clipPath><clipPath id="2f3bb6d0b7"><rect x="0" width="610" y="0" height="377"/></clipPath><clipPath id="f898af8d1d"><rect x="0" width="1069" y="0" height="99"/></clipPath></defs><rect x="-144" width="1728" fill="#ffffff" y="-80.999999" height="971.999992" fill-opacity="1"/><rect x="-144" width="1728" fill="#ffffff" y="-80.999999" height="971.999992" fill-opacity="1"/><g clip-path="url(#cb250b1a28)"><g clip-path="url(#ccb271a383)"><g clip-path="url(#576408719c)"><path fill="#aa8c1f" d="M 1175.914062 236.691406 L 1102.363281 233.425781 C 1088.15625 232.792969 1085.757812 260.46875 1102.589844 260.921875 L 1148.355469 262.164062 L 1144.859375 308.214844 C 1143.796875 322.238281 1171.148438 323.71875 1171.925781 309.46875 Z M 1175.914062 236.691406 " fill-opacity="1" fill-rule="nonzero"/></g></g></g><g clip-path="url(#ca9818a37e)"><g clip-path="url(#87b86b1cf5)"><g clip-path="url(#c6e7092cdd)"><path fill="#aa8c1f" d="M 1219.121094 199.652344 L 1145.570312 196.382812 C 1131.363281 195.75 1128.964844 223.425781 1145.796875 223.882812 L 1191.566406 225.121094 L 1188.070312 271.171875 C 1187.003906 285.195312 1214.355469 286.679688 1215.136719 272.425781 Z M 1219.121094 199.652344 " fill-opacity="1" fill-rule="nonzero"/></g></g></g><g clip-path="url(#b5dd45ae1a)"><g clip-path="url(#d36f222122)"><path fill="#9d0e32" d="M 359.03125 344.75 L 313.292969 318.375 L 244.644531 278.738281 L 198.90625 252.292969 L 198.90625 305.1875 L 244.644531 331.5625 L 290.382812 358.011719 L 359.03125 397.570312 L 404.769531 371.199219 Z M 359.03125 344.75 " fill-opacity="1" fill-rule="evenodd"/></g></g><g clip-path="url(#893aa0a284)"><g clip-path="url(#8406a571fa)"><path fill="#9d0e32" d="M 359.03125 291.925781 L 404.769531 318.375 L 473.417969 358.011719 L 519.15625 384.386719 L 519.15625 331.5625 L 473.417969 305.1875 L 427.675781 278.738281 L 359.03125 239.105469 L 313.292969 265.554688 Z M 359.03125 291.925781 " fill-opacity="1" fill-rule="evenodd"/></g></g><g clip-path="url(#2d7ce62402)"><g clip-path="url(#70e052bacb)"><path fill="#9d0e32" d="M 450.507812 397.570312 L 359.03125 450.46875 L 244.644531 384.386719 L 198.90625 358.011719 L 198.90625 410.832031 L 279.007812 457.023438 L 359.03125 503.292969 L 439.054688 457.023438 L 450.507812 450.46875 L 496.25 424.019531 Z M 450.507812 397.570312 " fill-opacity="1" fill-rule="evenodd"/></g></g><g clip-path="url(#63fc8898ab)"><g clip-path="url(#b731b96da2)"><path fill="#9d0e32" d="M 425.191406 224.484375 L 473.417969 252.292969 L 519.15625 278.738281 L 519.15625 225.917969 L 439.054688 179.652344 L 359.03125 133.460938 L 279.007812 179.652344 L 267.550781 186.28125 L 221.8125 212.730469 L 267.550781 239.105469 L 313.292969 212.730469 L 359.03125 186.28125 Z M 425.191406 224.484375 " fill-opacity="1" fill-rule="evenodd"/></g></g><g transform="matrix(1, 0, 0, 1, 538, 130)"><g clip-path="url(#2f3bb6d0b7)"><g fill="#9d0e32" fill-opacity="1"><g transform="translate(0.656513, 296.996541)"><g><path d="M 46.90625 -182.640625 C 46.90625 -177.421875 44.976562 -173.507812 41.125 -170.90625 C 37.269531 -168.300781 33.148438 -167 28.765625 -167 C 24.179688 -167 20.015625 -168.300781 16.265625 -170.90625 C 12.515625 -173.507812 10.640625 -177.421875 10.640625 -182.640625 L 10.640625 -186.703125 C 10.640625 -192.117188 12.515625 -196.078125 16.265625 -198.578125 C 20.015625 -201.085938 24.179688 -202.34375 28.765625 -202.34375 C 33.148438 -202.34375 37.269531 -201.085938 41.125 -198.578125 C 44.976562 -196.078125 46.90625 -192.117188 46.90625 -186.703125 Z M 10.953125 -143.859375 C 10.953125 -148.859375 12.878906 -152.660156 16.734375 -155.265625 C 20.585938 -157.878906 24.597656 -159.1875 28.765625 -159.1875 C 33.148438 -159.1875 37.21875 -157.878906 40.96875 -155.265625 C 44.71875 -152.660156 46.59375 -148.960938 46.59375 -144.171875 L 46.59375 -15.328125 C 46.59375 -10.109375 44.71875 -6.25 40.96875 -3.75 C 37.21875 -1.25 33.148438 0 28.765625 0 C 24.597656 0 20.585938 -1.25 16.734375 -3.75 C 12.878906 -6.25 10.953125 -10.109375 10.953125 -15.328125 Z M 10.953125 -143.859375 "/></g></g></g><g fill="#9d0e32" fill-opacity="1"><g transform="translate(78.523849, 296.996541)"><g><path d="M 95.703125 -162.3125 C 111.128906 -162.3125 124.625 -158.921875 136.1875 -152.140625 C 147.757812 -145.367188 156.722656 -135.882812 163.078125 -123.6875 C 169.441406 -111.488281 172.625 -97.363281 172.625 -81.3125 C 172.625 -64.632812 169.441406 -49.9375 163.078125 -37.21875 C 156.722656 -24.5 147.914062 -14.59375 136.65625 -7.5 C 125.40625 -0.414062 112.171875 3.125 96.953125 3.125 C 89.859375 3.125 82.140625 1.875 73.796875 -0.625 C 65.460938 -3.125 57.851562 -6.671875 50.96875 -11.265625 L 50.96875 36.59375 C 50.96875 41.800781 49.144531 45.757812 45.5 48.46875 C 41.851562 51.1875 37.84375 52.546875 33.46875 52.546875 C 28.875 52.546875 24.753906 51.1875 21.109375 48.46875 C 17.460938 45.757812 15.640625 41.800781 15.640625 36.59375 L 15.640625 -143.234375 C 15.640625 -148.234375 17.253906 -152.140625 20.484375 -154.953125 C 23.710938 -157.773438 28.144531 -159.1875 33.78125 -159.1875 C 43.15625 -159.1875 48.675781 -155.535156 50.34375 -148.234375 C 57.644531 -153.441406 65.253906 -157.085938 73.171875 -159.171875 C 81.097656 -161.265625 88.609375 -162.3125 95.703125 -162.3125 Z M 96.015625 -28.453125 C 108.304688 -28.453125 118.207031 -33.300781 125.71875 -43 C 133.226562 -52.695312 136.984375 -65.363281 136.984375 -81 C 136.984375 -95.800781 132.96875 -107.785156 124.9375 -116.953125 C 116.90625 -126.128906 106.320312 -130.71875 93.1875 -130.71875 C 84.851562 -130.71875 76.722656 -128.582031 68.796875 -124.3125 C 60.878906 -120.039062 54.9375 -113.941406 50.96875 -106.015625 L 50.96875 -54.109375 C 54.3125 -45.972656 60.253906 -39.660156 68.796875 -35.171875 C 77.347656 -30.691406 86.421875 -28.453125 96.015625 -28.453125 Z M 96.015625 -28.453125 "/></g></g></g><g fill="#9d0e32" fill-opacity="1"><g transform="translate(287.104855, 296.996541)"><g><path d="M 84.4375 -159.1875 C 90.0625 -159.1875 94.539062 -157.984375 97.875 -155.578125 C 101.21875 -153.179688 102.890625 -149.273438 102.890625 -143.859375 C 102.890625 -138.859375 101.21875 -134.894531 97.875 -131.96875 C 94.539062 -129.050781 90.0625 -127.59375 84.4375 -127.59375 C 71.300781 -127.59375 62.070312 -122.898438 56.75 -113.515625 C 51.4375 -104.140625 48.78125 -91.425781 48.78125 -75.375 L 48.78125 -15.953125 C 48.78125 -11.359375 47.113281 -7.550781 43.78125 -4.53125 C 40.445312 -1.507812 36.382812 0 31.59375 0 C 26.164062 0 21.785156 -1.507812 18.453125 -4.53125 C 15.117188 -7.550781 13.453125 -11.359375 13.453125 -15.953125 L 13.453125 -143.234375 C 13.453125 -148.234375 15.378906 -152.140625 19.234375 -154.953125 C 23.085938 -157.773438 27.207031 -159.1875 31.59375 -159.1875 C 35.96875 -159.1875 39.925781 -157.828125 43.46875 -155.109375 C 47.007812 -152.398438 48.78125 -148.441406 48.78125 -143.234375 L 48.78125 -141.359375 C 53.375 -147.398438 58.691406 -151.878906 64.734375 -154.796875 C 70.785156 -157.722656 77.351562 -159.1875 84.4375 -159.1875 Z M 84.4375 -159.1875 "/></g></g></g><g fill="#9d0e32" fill-opacity="1"><g transform="translate(407.18834, 296.996541)"><g><path d="M 89.4375 -162.3125 C 106.113281 -162.3125 120.707031 -158.816406 133.21875 -151.828125 C 145.726562 -144.847656 155.421875 -135.101562 162.296875 -122.59375 C 169.179688 -110.082031 172.625 -95.488281 172.625 -78.8125 C 172.414062 -62.550781 168.816406 -48.269531 161.828125 -35.96875 C 154.847656 -23.664062 145.15625 -14.070312 132.75 -7.1875 C 120.34375 -0.3125 105.90625 3.125 89.4375 3.125 C 73.175781 3.125 58.789062 -0.3125 46.28125 -7.1875 C 33.769531 -14.070312 24.019531 -23.664062 17.03125 -35.96875 C 10.050781 -48.269531 6.457031 -62.550781 6.25 -78.8125 C 6.25 -95.488281 9.738281 -110.082031 16.71875 -122.59375 C 23.707031 -135.101562 33.457031 -144.847656 45.96875 -151.828125 C 58.476562 -158.816406 72.96875 -162.3125 89.4375 -162.3125 Z M 89.4375 -28.140625 C 103.613281 -28.140625 114.925781 -32.832031 123.375 -42.21875 C 131.820312 -51.601562 136.046875 -63.800781 136.046875 -78.8125 C 136.046875 -94.238281 131.820312 -106.796875 123.375 -116.484375 C 114.925781 -126.179688 103.613281 -131.03125 89.4375 -131.03125 C 75.46875 -131.03125 64.207031 -126.179688 55.65625 -116.484375 C 47.113281 -106.796875 42.84375 -94.238281 42.84375 -78.8125 C 42.84375 -63.800781 47.113281 -51.601562 55.65625 -42.21875 C 64.207031 -32.832031 75.46875 -28.140625 89.4375 -28.140625 Z M 89.4375 -28.140625 "/></g></g></g></g></g><g transform="matrix(1, 0, 0, 1, 181, 518)"><g clip-path="url(#f898af8d1d)"><g fill="#b1792f" fill-opacity="1"><g transform="translate(1.506373, 74.268613)"><g><path d="M 19.625 0.484375 C 16.5 0.484375 13.765625 -0.0664062 11.421875 -1.171875 C 9.085938 -2.273438 7.265625 -3.765625 5.953125 -5.640625 C 4.648438 -7.523438 3.90625 -9.613281 3.71875 -11.90625 L 6.953125 -11.90625 C 7.316406 -9.382812 8.5 -7.132812 10.5 -5.15625 C 12.5 -3.1875 15.539062 -2.203125 19.625 -2.203125 C 22.007812 -2.203125 24.082031 -2.632812 25.84375 -3.5 C 27.613281 -4.375 28.976562 -5.566406 29.9375 -7.078125 C 30.90625 -8.597656 31.390625 -10.273438 31.390625 -12.109375 C 31.390625 -14.453125 30.828125 -16.3125 29.703125 -17.6875 C 28.578125 -19.070312 27.175781 -20.109375 25.5 -20.796875 C 23.832031 -21.484375 21.570312 -22.21875 18.71875 -23 C 15.601562 -23.820312 13.09375 -24.644531 11.1875 -25.46875 C 9.28125 -26.300781 7.671875 -27.578125 6.359375 -29.296875 C 5.054688 -31.015625 4.40625 -33.363281 4.40625 -36.34375 C 4.40625 -38.644531 5.015625 -40.742188 6.234375 -42.640625 C 7.453125 -44.546875 9.179688 -46.050781 11.421875 -47.15625 C 13.671875 -48.257812 16.265625 -48.8125 19.203125 -48.8125 C 23.472656 -48.8125 26.914062 -47.753906 29.53125 -45.640625 C 32.144531 -43.535156 33.707031 -40.941406 34.21875 -37.859375 L 30.90625 -37.859375 C 30.632812 -39.097656 30.023438 -40.359375 29.078125 -41.640625 C 28.140625 -42.929688 26.8125 -44 25.09375 -44.84375 C 23.375 -45.695312 21.320312 -46.125 18.9375 -46.125 C 15.71875 -46.125 13.003906 -45.238281 10.796875 -43.46875 C 8.597656 -41.707031 7.5 -39.359375 7.5 -36.421875 C 7.5 -34.078125 8.070312 -32.203125 9.21875 -30.796875 C 10.375 -29.398438 11.785156 -28.347656 13.453125 -27.640625 C 15.128906 -26.929688 17.390625 -26.207031 20.234375 -25.46875 C 23.398438 -24.601562 25.910156 -23.765625 27.765625 -22.953125 C 29.628906 -22.148438 31.210938 -20.890625 32.515625 -19.171875 C 33.828125 -17.453125 34.484375 -15.125 34.484375 -12.1875 C 34.484375 -10.03125 33.910156 -7.988281 32.765625 -6.0625 C 31.617188 -4.132812 29.929688 -2.5625 27.703125 -1.34375 C 25.484375 -0.125 22.789062 0.484375 19.625 0.484375 Z M 19.625 0.484375 "/></g></g></g><g fill="#b1792f" fill-opacity="1"><g transform="translate(44.32918, 74.268613)"><g><path d="M 7.234375 -45.71875 C 6.492188 -45.71875 5.867188 -45.957031 5.359375 -46.4375 C 4.859375 -46.914062 4.609375 -47.566406 4.609375 -48.390625 C 4.609375 -49.171875 4.859375 -49.8125 5.359375 -50.3125 C 5.867188 -50.820312 6.492188 -51.078125 7.234375 -51.078125 C 7.960938 -51.078125 8.578125 -50.820312 9.078125 -50.3125 C 9.585938 -49.8125 9.84375 -49.171875 9.84375 -48.390625 C 9.84375 -47.566406 9.585938 -46.914062 9.078125 -46.4375 C 8.578125 -45.957031 7.960938 -45.71875 7.234375 -45.71875 Z M 8.75 -37.375 L 8.75 0 L 5.640625 0 L 5.640625 -37.375 Z M 8.75 -37.375 "/></g></g></g><g fill="#b1792f" fill-opacity="1"><g transform="translate(63.46975, 74.268613)"><g><path d="M 18.109375 0.546875 C 13.929688 0.546875 10.519531 -0.367188 7.875 -2.203125 C 5.238281 -4.035156 3.757812 -6.648438 3.4375 -10.046875 L 6.609375 -10.046875 C 6.835938 -7.617188 7.945312 -5.691406 9.9375 -4.265625 C 11.9375 -2.847656 14.660156 -2.140625 18.109375 -2.140625 C 20.953125 -2.140625 23.210938 -2.859375 24.890625 -4.296875 C 26.566406 -5.742188 27.40625 -7.523438 27.40625 -9.640625 C 27.40625 -11.109375 26.957031 -12.3125 26.0625 -13.25 C 25.164062 -14.1875 24.050781 -14.90625 22.71875 -15.40625 C 21.382812 -15.914062 19.570312 -16.472656 17.28125 -17.078125 C 14.53125 -17.804688 12.304688 -18.523438 10.609375 -19.234375 C 8.910156 -19.953125 7.460938 -21.019531 6.265625 -22.4375 C 5.066406 -23.863281 4.46875 -25.769531 4.46875 -28.15625 C 4.46875 -29.894531 4.992188 -31.507812 6.046875 -33 C 7.109375 -34.5 8.578125 -35.679688 10.453125 -36.546875 C 12.335938 -37.421875 14.472656 -37.859375 16.859375 -37.859375 C 20.765625 -37.859375 23.921875 -36.882812 26.328125 -34.9375 C 28.742188 -32.988281 30.039062 -30.289062 30.21875 -26.84375 L 27.125 -26.84375 C 26.988281 -29.320312 26.023438 -31.34375 24.234375 -32.90625 C 22.441406 -34.46875 19.960938 -35.25 16.796875 -35.25 C 14.140625 -35.25 11.9375 -34.5625 10.1875 -33.1875 C 8.445312 -31.8125 7.578125 -30.132812 7.578125 -28.15625 C 7.578125 -26.414062 8.066406 -25.003906 9.046875 -23.921875 C 10.035156 -22.847656 11.253906 -22.019531 12.703125 -21.4375 C 14.148438 -20.863281 16.066406 -20.257812 18.453125 -19.625 C 21.066406 -18.9375 23.164062 -18.257812 24.75 -17.59375 C 26.332031 -16.925781 27.671875 -15.960938 28.765625 -14.703125 C 29.867188 -13.441406 30.421875 -11.753906 30.421875 -9.640625 C 30.421875 -7.710938 29.894531 -5.96875 28.84375 -4.40625 C 27.789062 -2.84375 26.320312 -1.625 24.4375 -0.75 C 22.550781 0.113281 20.441406 0.546875 18.109375 0.546875 Z M 18.109375 0.546875 "/></g></g></g><g fill="#b1792f" fill-opacity="1"><g transform="translate(102.368473, 74.268613)"><g><path d="M 10.25 -34.703125 L 10.25 -9.984375 C 10.25 -7.234375 10.753906 -5.335938 11.765625 -4.296875 C 12.773438 -3.265625 14.566406 -2.75 17.140625 -2.75 L 21.34375 -2.75 L 21.34375 0 L 16.65625 0 C 13.394531 0 10.992188 -0.765625 9.453125 -2.296875 C 7.921875 -3.835938 7.15625 -6.398438 7.15625 -9.984375 L 7.15625 -34.703125 L 1.515625 -34.703125 L 1.515625 -37.375 L 7.15625 -37.375 L 7.15625 -46.875 L 10.25 -46.875 L 10.25 -37.375 L 21.34375 -37.375 L 21.34375 -34.703125 Z M 10.25 -34.703125 "/></g></g></g><g fill="#b1792f" fill-opacity="1"><g transform="translate(130.940619, 74.268613)"><g><path d="M 39.3125 -21.203125 C 39.3125 -19.546875 39.265625 -18.304688 39.171875 -17.484375 L 6.890625 -17.484375 C 6.972656 -14.128906 7.703125 -11.304688 9.078125 -9.015625 C 10.460938 -6.722656 12.28125 -5.003906 14.53125 -3.859375 C 16.78125 -2.710938 19.234375 -2.140625 21.890625 -2.140625 C 25.566406 -2.140625 28.640625 -3.046875 31.109375 -4.859375 C 33.585938 -6.671875 35.148438 -9.132812 35.796875 -12.25 L 39.03125 -12.25 C 38.300781 -8.445312 36.421875 -5.363281 33.390625 -3 C 30.359375 -0.632812 26.523438 0.546875 21.890625 0.546875 C 18.398438 0.546875 15.28125 -0.226562 12.53125 -1.78125 C 9.78125 -3.34375 7.625 -5.582031 6.0625 -8.5 C 4.5 -11.414062 3.71875 -14.820312 3.71875 -18.71875 C 3.71875 -22.625 4.484375 -26.019531 6.015625 -28.90625 C 7.554688 -31.800781 9.703125 -34.015625 12.453125 -35.546875 C 15.210938 -37.085938 18.359375 -37.859375 21.890625 -37.859375 C 25.472656 -37.859375 28.582031 -37.085938 31.21875 -35.546875 C 33.851562 -34.015625 35.859375 -31.972656 37.234375 -29.421875 C 38.617188 -26.878906 39.3125 -24.140625 39.3125 -21.203125 Z M 36.21875 -20.03125 C 36.351562 -23.332031 35.765625 -26.128906 34.453125 -28.421875 C 33.148438 -30.722656 31.375 -32.4375 29.125 -33.5625 C 26.875 -34.6875 24.441406 -35.25 21.828125 -35.25 C 19.210938 -35.25 16.789062 -34.6875 14.5625 -33.5625 C 12.332031 -32.4375 10.515625 -30.722656 9.109375 -28.421875 C 7.710938 -26.128906 6.972656 -23.332031 6.890625 -20.03125 Z M 36.21875 -20.03125 "/></g></g></g><g fill="#b1792f" fill-opacity="1"><g transform="translate(178.651329, 74.268613)"><g><path d="M 49.84375 -38.140625 C 54.113281 -38.140625 57.601562 -36.773438 60.3125 -34.046875 C 63.019531 -31.316406 64.375 -27.265625 64.375 -21.890625 L 64.375 0 L 61.34375 0 L 61.34375 -21.6875 C 61.34375 -26.132812 60.273438 -29.539062 58.140625 -31.90625 C 56.003906 -34.269531 53.078125 -35.453125 49.359375 -35.453125 C 45.503906 -35.453125 42.40625 -34.117188 40.0625 -31.453125 C 37.726562 -28.796875 36.5625 -24.941406 36.5625 -19.890625 L 36.5625 0 L 33.53125 0 L 33.53125 -21.6875 C 33.53125 -26.132812 32.460938 -29.539062 30.328125 -31.90625 C 28.191406 -34.269531 25.265625 -35.453125 21.546875 -35.453125 C 17.691406 -35.453125 14.59375 -34.117188 12.25 -31.453125 C 9.914062 -28.796875 8.75 -24.941406 8.75 -19.890625 L 8.75 0 L 5.640625 0 L 5.640625 -37.375 L 8.75 -37.375 L 8.75 -29.265625 C 9.800781 -32.203125 11.507812 -34.414062 13.875 -35.90625 C 16.238281 -37.394531 18.957031 -38.140625 22.03125 -38.140625 C 25.425781 -38.140625 28.347656 -37.253906 30.796875 -35.484375 C 33.253906 -33.722656 34.945312 -31.117188 35.875 -27.671875 C 36.738281 -31.117188 38.429688 -33.722656 40.953125 -35.484375 C 43.484375 -37.253906 46.445312 -38.140625 49.84375 -38.140625 Z M 49.84375 -38.140625 "/></g></g></g><g fill="#b1792f" fill-opacity="1"><g transform="translate(253.073361, 74.268613)"><g/></g></g><g fill="#b1792f" fill-opacity="1"><g transform="translate(277.170697, 74.268613)"><g><path d="M 49.84375 -38.140625 C 54.113281 -38.140625 57.601562 -36.773438 60.3125 -34.046875 C 63.019531 -31.316406 64.375 -27.265625 64.375 -21.890625 L 64.375 0 L 61.34375 0 L 61.34375 -21.6875 C 61.34375 -26.132812 60.273438 -29.539062 58.140625 -31.90625 C 56.003906 -34.269531 53.078125 -35.453125 49.359375 -35.453125 C 45.503906 -35.453125 42.40625 -34.117188 40.0625 -31.453125 C 37.726562 -28.796875 36.5625 -24.941406 36.5625 -19.890625 L 36.5625 0 L 33.53125 0 L 33.53125 -21.6875 C 33.53125 -26.132812 32.460938 -29.539062 30.328125 -31.90625 C 28.191406 -34.269531 25.265625 -35.453125 21.546875 -35.453125 C 17.691406 -35.453125 14.59375 -34.117188 12.25 -31.453125 C 9.914062 -28.796875 8.75 -24.941406 8.75 -19.890625 L 8.75 0 L 5.640625 0 L 5.640625 -37.375 L 8.75 -37.375 L 8.75 -29.265625 C 9.800781 -32.203125 11.507812 -34.414062 13.875 -35.90625 C 16.238281 -37.394531 18.957031 -38.140625 22.03125 -38.140625 C 25.425781 -38.140625 28.347656 -37.253906 30.796875 -35.484375 C 33.253906 -33.722656 34.945312 -31.117188 35.875 -27.671875 C 36.738281 -31.117188 38.429688 -33.722656 40.953125 -35.484375 C 43.484375 -37.253906 46.445312 -38.140625 49.84375 -38.140625 Z M 49.84375 -38.140625 "/></g></g></g><g fill="#b1792f" fill-opacity="1"><g transform="translate(351.59273, 74.268613)"><g><path d="M 3.71875 -18.71875 C 3.71875 -22.582031 4.484375 -25.957031 6.015625 -28.84375 C 7.554688 -31.738281 9.691406 -33.960938 12.421875 -35.515625 C 15.148438 -37.078125 18.257812 -37.859375 21.75 -37.859375 C 25.695312 -37.859375 29.046875 -36.894531 31.796875 -34.96875 C 34.554688 -33.039062 36.488281 -30.585938 37.59375 -27.609375 L 37.59375 -37.375 L 40.6875 -37.375 L 40.6875 0 L 37.59375 0 L 37.59375 -9.84375 C 36.488281 -6.8125 34.546875 -4.320312 31.765625 -2.375 C 28.992188 -0.425781 25.65625 0.546875 21.75 0.546875 C 18.257812 0.546875 15.148438 -0.242188 12.421875 -1.828125 C 9.691406 -3.410156 7.554688 -5.65625 6.015625 -8.5625 C 4.484375 -11.476562 3.71875 -14.863281 3.71875 -18.71875 Z M 37.59375 -18.71875 C 37.59375 -21.976562 36.914062 -24.859375 35.5625 -27.359375 C 34.207031 -29.867188 32.359375 -31.796875 30.015625 -33.140625 C 27.671875 -34.492188 25.054688 -35.171875 22.171875 -35.171875 C 19.140625 -35.171875 16.472656 -34.515625 14.171875 -33.203125 C 11.878906 -31.898438 10.09375 -30.007812 8.8125 -27.53125 C 7.53125 -25.050781 6.890625 -22.113281 6.890625 -18.71875 C 6.890625 -15.320312 7.53125 -12.382812 8.8125 -9.90625 C 10.09375 -7.4375 11.890625 -5.535156 14.203125 -4.203125 C 16.523438 -2.867188 19.179688 -2.203125 22.171875 -2.203125 C 25.054688 -2.203125 27.679688 -2.878906 30.046875 -4.234375 C 32.410156 -5.585938 34.257812 -7.515625 35.59375 -10.015625 C 36.925781 -12.515625 37.59375 -15.414062 37.59375 -18.71875 Z M 37.59375 -18.71875 "/></g></g></g><g fill="#b1792f" fill-opacity="1"><g transform="translate(402.607934, 74.268613)"><g><path d="M 22.515625 -38.140625 C 26.960938 -38.140625 30.585938 -36.773438 33.390625 -34.046875 C 36.191406 -31.316406 37.59375 -27.265625 37.59375 -21.890625 L 37.59375 0 L 34.5625 0 L 34.5625 -21.6875 C 34.5625 -26.132812 33.4375 -29.539062 31.1875 -31.90625 C 28.9375 -34.269531 25.882812 -35.453125 22.03125 -35.453125 C 17.988281 -35.453125 14.765625 -34.164062 12.359375 -31.59375 C 9.953125 -29.03125 8.75 -25.222656 8.75 -20.171875 L 8.75 0 L 5.640625 0 L 5.640625 -37.375 L 8.75 -37.375 L 8.75 -29.46875 C 9.800781 -32.269531 11.550781 -34.414062 14 -35.90625 C 16.457031 -37.394531 19.296875 -38.140625 22.515625 -38.140625 Z M 22.515625 -38.140625 "/></g></g></g><g fill="#b1792f" fill-opacity="1"><g transform="translate(450.180915, 74.268613)"><g><path d="M 3.71875 -18.71875 C 3.71875 -22.582031 4.484375 -25.957031 6.015625 -28.84375 C 7.554688 -31.738281 9.691406 -33.960938 12.421875 -35.515625 C 15.148438 -37.078125 18.257812 -37.859375 21.75 -37.859375 C 25.695312 -37.859375 29.046875 -36.894531 31.796875 -34.96875 C 34.554688 -33.039062 36.488281 -30.585938 37.59375 -27.609375 L 37.59375 -37.375 L 40.6875 -37.375 L 40.6875 0 L 37.59375 0 L 37.59375 -9.84375 C 36.488281 -6.8125 34.546875 -4.320312 31.765625 -2.375 C 28.992188 -0.425781 25.65625 0.546875 21.75 0.546875 C 18.257812 0.546875 15.148438 -0.242188 12.421875 -1.828125 C 9.691406 -3.410156 7.554688 -5.65625 6.015625 -8.5625 C 4.484375 -11.476562 3.71875 -14.863281 3.71875 -18.71875 Z M 37.59375 -18.71875 C 37.59375 -21.976562 36.914062 -24.859375 35.5625 -27.359375 C 34.207031 -29.867188 32.359375 -31.796875 30.015625 -33.140625 C 27.671875 -34.492188 25.054688 -35.171875 22.171875 -35.171875 C 19.140625 -35.171875 16.472656 -34.515625 14.171875 -33.203125 C 11.878906 -31.898438 10.09375 -30.007812 8.8125 -27.53125 C 7.53125 -25.050781 6.890625 -22.113281 6.890625 -18.71875 C 6.890625 -15.320312 7.53125 -12.382812 8.8125 -9.90625 C 10.09375 -7.4375 11.890625 -5.535156 14.203125 -4.203125 C 16.523438 -2.867188 19.179688 -2.203125 22.171875 -2.203125 C 25.054688 -2.203125 27.679688 -2.878906 30.046875 -4.234375 C 32.410156 -5.585938 34.257812 -7.515625 35.59375 -10.015625 C 36.925781 -12.515625 37.59375 -15.414062 37.59375 -18.71875 Z M 37.59375 -18.71875 "/></g></g></g><g fill="#b1792f" fill-opacity="1"><g transform="translate(501.196119, 74.268613)"><g><path d="M 7.703125 -45.71875 C 6.972656 -45.71875 6.351562 -45.957031 5.84375 -46.4375 C 5.34375 -46.914062 5.09375 -47.566406 5.09375 -48.390625 C 5.09375 -49.171875 5.34375 -49.8125 5.84375 -50.3125 C 6.351562 -50.820312 6.972656 -51.078125 7.703125 -51.078125 C 8.441406 -51.078125 9.070312 -50.820312 9.59375 -50.3125 C 10.125 -49.8125 10.390625 -49.171875 10.390625 -48.390625 C 10.390625 -47.617188 10.125 -46.976562 9.59375 -46.46875 C 9.070312 -45.96875 8.441406 -45.71875 7.703125 -45.71875 Z M 9.296875 9.640625 C 9.296875 12.296875 8.640625 14.289062 7.328125 15.625 C 6.023438 16.957031 3.945312 17.625 1.09375 17.625 L -1.796875 17.625 L -1.796875 14.875 L 0.75 14.875 C 2.6875 14.875 4.078125 14.46875 4.921875 13.65625 C 5.773438 12.851562 6.203125 11.421875 6.203125 9.359375 L 6.203125 -37.375 L 9.296875 -37.375 Z M 9.296875 9.640625 "/></g></g></g><g fill="#b1792f" fill-opacity="1"><g transform="translate(520.818597, 74.268613)"><g><path d="M 39.3125 -21.203125 C 39.3125 -19.546875 39.265625 -18.304688 39.171875 -17.484375 L 6.890625 -17.484375 C 6.972656 -14.128906 7.703125 -11.304688 9.078125 -9.015625 C 10.460938 -6.722656 12.28125 -5.003906 14.53125 -3.859375 C 16.78125 -2.710938 19.234375 -2.140625 21.890625 -2.140625 C 25.566406 -2.140625 28.640625 -3.046875 31.109375 -4.859375 C 33.585938 -6.671875 35.148438 -9.132812 35.796875 -12.25 L 39.03125 -12.25 C 38.300781 -8.445312 36.421875 -5.363281 33.390625 -3 C 30.359375 -0.632812 26.523438 0.546875 21.890625 0.546875 C 18.398438 0.546875 15.28125 -0.226562 12.53125 -1.78125 C 9.78125 -3.34375 7.625 -5.582031 6.0625 -8.5 C 4.5 -11.414062 3.71875 -14.820312 3.71875 -18.71875 C 3.71875 -22.625 4.484375 -26.019531 6.015625 -28.90625 C 7.554688 -31.800781 9.703125 -34.015625 12.453125 -35.546875 C 15.210938 -37.085938 18.359375 -37.859375 21.890625 -37.859375 C 25.472656 -37.859375 28.582031 -37.085938 31.21875 -35.546875 C 33.851562 -34.015625 35.859375 -31.972656 37.234375 -29.421875 C 38.617188 -26.878906 39.3125 -24.140625 39.3125 -21.203125 Z M 36.21875 -20.03125 C 36.351562 -23.332031 35.765625 -26.128906 34.453125 -28.421875 C 33.148438 -30.722656 31.375 -32.4375 29.125 -33.5625 C 26.875 -34.6875 24.441406 -35.25 21.828125 -35.25 C 19.210938 -35.25 16.789062 -34.6875 14.5625 -33.5625 C 12.332031 -32.4375 10.515625 -30.722656 9.109375 -28.421875 C 7.710938 -26.128906 6.972656 -23.332031 6.890625 -20.03125 Z M 36.21875 -20.03125 "/></g></g></g><g fill="#b1792f" fill-opacity="1"><g transform="translate(568.529307, 74.268613)"><g><path d="M 49.84375 -38.140625 C 54.113281 -38.140625 57.601562 -36.773438 60.3125 -34.046875 C 63.019531 -31.316406 64.375 -27.265625 64.375 -21.890625 L 64.375 0 L 61.34375 0 L 61.34375 -21.6875 C 61.34375 -26.132812 60.273438 -29.539062 58.140625 -31.90625 C 56.003906 -34.269531 53.078125 -35.453125 49.359375 -35.453125 C 45.503906 -35.453125 42.40625 -34.117188 40.0625 -31.453125 C 37.726562 -28.796875 36.5625 -24.941406 36.5625 -19.890625 L 36.5625 0 L 33.53125 0 L 33.53125 -21.6875 C 33.53125 -26.132812 32.460938 -29.539062 30.328125 -31.90625 C 28.191406 -34.269531 25.265625 -35.453125 21.546875 -35.453125 C 17.691406 -35.453125 14.59375 -34.117188 12.25 -31.453125 C 9.914062 -28.796875 8.75 -24.941406 8.75 -19.890625 L 8.75 0 L 5.640625 0 L 5.640625 -37.375 L 8.75 -37.375 L 8.75 -29.265625 C 9.800781 -32.203125 11.507812 -34.414062 13.875 -35.90625 C 16.238281 -37.394531 18.957031 -38.140625 22.03125 -38.140625 C 25.425781 -38.140625 28.347656 -37.253906 30.796875 -35.484375 C 33.253906 -33.722656 34.945312 -31.117188 35.875 -27.671875 C 36.738281 -31.117188 38.429688 -33.722656 40.953125 -35.484375 C 43.484375 -37.253906 46.445312 -38.140625 49.84375 -38.140625 Z M 49.84375 -38.140625 "/></g></g></g><g fill="#b1792f" fill-opacity="1"><g transform="translate(642.951339, 74.268613)"><g><path d="M 39.3125 -21.203125 C 39.3125 -19.546875 39.265625 -18.304688 39.171875 -17.484375 L 6.890625 -17.484375 C 6.972656 -14.128906 7.703125 -11.304688 9.078125 -9.015625 C 10.460938 -6.722656 12.28125 -5.003906 14.53125 -3.859375 C 16.78125 -2.710938 19.234375 -2.140625 21.890625 -2.140625 C 25.566406 -2.140625 28.640625 -3.046875 31.109375 -4.859375 C 33.585938 -6.671875 35.148438 -9.132812 35.796875 -12.25 L 39.03125 -12.25 C 38.300781 -8.445312 36.421875 -5.363281 33.390625 -3 C 30.359375 -0.632812 26.523438 0.546875 21.890625 0.546875 C 18.398438 0.546875 15.28125 -0.226562 12.53125 -1.78125 C 9.78125 -3.34375 7.625 -5.582031 6.0625 -8.5 C 4.5 -11.414062 3.71875 -14.820312 3.71875 -18.71875 C 3.71875 -22.625 4.484375 -26.019531 6.015625 -28.90625 C 7.554688 -31.800781 9.703125 -34.015625 12.453125 -35.546875 C 15.210938 -37.085938 18.359375 -37.859375 21.890625 -37.859375 C 25.472656 -37.859375 28.582031 -37.085938 31.21875 -35.546875 C 33.851562 -34.015625 35.859375 -31.972656 37.234375 -29.421875 C 38.617188 -26.878906 39.3125 -24.140625 39.3125 -21.203125 Z M 36.21875 -20.03125 C 36.351562 -23.332031 35.765625 -26.128906 34.453125 -28.421875 C 33.148438 -30.722656 31.375 -32.4375 29.125 -33.5625 C 26.875 -34.6875 24.441406 -35.25 21.828125 -35.25 C 19.210938 -35.25 16.789062 -34.6875 14.5625 -33.5625 C 12.332031 -32.4375 10.515625 -30.722656 9.109375 -28.421875 C 7.710938 -26.128906 6.972656 -23.332031 6.890625 -20.03125 Z M 36.21875 -20.03125 "/></g></g></g><g fill="#b1792f" fill-opacity="1"><g transform="translate(690.662048, 74.268613)"><g><path d="M 22.515625 -38.140625 C 26.960938 -38.140625 30.585938 -36.773438 33.390625 -34.046875 C 36.191406 -31.316406 37.59375 -27.265625 37.59375 -21.890625 L 37.59375 0 L 34.5625 0 L 34.5625 -21.6875 C 34.5625 -26.132812 33.4375 -29.539062 31.1875 -31.90625 C 28.9375 -34.269531 25.882812 -35.453125 22.03125 -35.453125 C 17.988281 -35.453125 14.765625 -34.164062 12.359375 -31.59375 C 9.953125 -29.03125 8.75 -25.222656 8.75 -20.171875 L 8.75 0 L 5.640625 0 L 5.640625 -37.375 L 8.75 -37.375 L 8.75 -29.46875 C 9.800781 -32.269531 11.550781 -34.414062 14 -35.90625 C 16.457031 -37.394531 19.296875 -38.140625 22.515625 -38.140625 Z M 22.515625 -38.140625 "/></g></g></g><g fill="#b1792f" fill-opacity="1"><g transform="translate(738.235029, 74.268613)"><g/></g></g><g fill="#b1792f" fill-opacity="1"><g transform="translate(762.332365, 74.268613)"><g><path d="M 8.75 -27.53125 C 9.800781 -30.5625 11.710938 -33.039062 14.484375 -34.96875 C 17.265625 -36.894531 20.628906 -37.859375 24.578125 -37.859375 C 28.066406 -37.859375 31.175781 -37.078125 33.90625 -35.515625 C 36.632812 -33.960938 38.765625 -31.738281 40.296875 -28.84375 C 41.835938 -25.957031 42.609375 -22.582031 42.609375 -18.71875 C 42.609375 -14.863281 41.835938 -11.476562 40.296875 -8.5625 C 38.765625 -5.65625 36.632812 -3.410156 33.90625 -1.828125 C 31.175781 -0.242188 28.066406 0.546875 24.578125 0.546875 C 20.671875 0.546875 17.328125 -0.425781 14.546875 -2.375 C 11.773438 -4.320312 9.84375 -6.789062 8.75 -9.78125 L 8.75 17.625 L 5.640625 17.625 L 5.640625 -37.375 L 8.75 -37.375 Z M 39.453125 -18.71875 C 39.453125 -22.113281 38.804688 -25.050781 37.515625 -27.53125 C 36.234375 -30.007812 34.429688 -31.898438 32.109375 -33.203125 C 29.796875 -34.515625 27.125 -35.171875 24.09375 -35.171875 C 21.207031 -35.171875 18.59375 -34.492188 16.25 -33.140625 C 13.90625 -31.796875 12.066406 -29.867188 10.734375 -27.359375 C 9.410156 -24.859375 8.75 -21.976562 8.75 -18.71875 C 8.75 -15.414062 9.410156 -12.515625 10.734375 -10.015625 C 12.066406 -7.515625 13.90625 -5.585938 16.25 -4.234375 C 18.59375 -2.878906 21.207031 -2.203125 24.09375 -2.203125 C 27.125 -2.203125 29.796875 -2.867188 32.109375 -4.203125 C 34.429688 -5.535156 36.234375 -7.4375 37.515625 -9.90625 C 38.804688 -12.382812 39.453125 -15.320312 39.453125 -18.71875 Z M 39.453125 -18.71875 "/></g></g></g><g fill="#b1792f" fill-opacity="1"><g transform="translate(813.347569, 74.268613)"><g><path d="M 8.75 -29.671875 C 9.664062 -32.421875 11.289062 -34.519531 13.625 -35.96875 C 15.96875 -37.414062 18.953125 -38.140625 22.578125 -38.140625 L 22.578125 -34.90625 L 21.546875 -34.90625 C 17.878906 -34.90625 14.828125 -33.859375 12.390625 -31.765625 C 9.960938 -29.679688 8.75 -26.273438 8.75 -21.546875 L 8.75 0 L 5.640625 0 L 5.640625 -37.375 L 8.75 -37.375 Z M 8.75 -29.671875 "/></g></g></g><g fill="#b1792f" fill-opacity="1"><g transform="translate(842.126308, 74.268613)"><g><path d="M 22.09375 0.546875 C 18.601562 0.546875 15.457031 -0.226562 12.65625 -1.78125 C 9.863281 -3.34375 7.675781 -5.582031 6.09375 -8.5 C 4.507812 -11.414062 3.71875 -14.820312 3.71875 -18.71875 C 3.71875 -22.582031 4.519531 -25.96875 6.125 -28.875 C 7.726562 -31.789062 9.941406 -34.015625 12.765625 -35.546875 C 15.585938 -37.085938 18.742188 -37.859375 22.234375 -37.859375 C 25.722656 -37.859375 28.867188 -37.085938 31.671875 -35.546875 C 34.472656 -34.015625 36.664062 -31.800781 38.25 -28.90625 C 39.832031 -26.019531 40.625 -22.625 40.625 -18.71875 C 40.625 -14.820312 39.816406 -11.414062 38.203125 -8.5 C 36.597656 -5.582031 34.382812 -3.34375 31.5625 -1.78125 C 28.738281 -0.226562 25.582031 0.546875 22.09375 0.546875 Z M 22.09375 -2.203125 C 24.800781 -2.203125 27.335938 -2.8125 29.703125 -4.03125 C 32.066406 -5.25 33.957031 -7.09375 35.375 -9.5625 C 36.800781 -12.039062 37.515625 -15.09375 37.515625 -18.71875 C 37.515625 -22.300781 36.800781 -25.332031 35.375 -27.8125 C 33.957031 -30.289062 32.078125 -32.132812 29.734375 -33.34375 C 27.398438 -34.5625 24.878906 -35.171875 22.171875 -35.171875 C 19.460938 -35.171875 16.945312 -34.5625 14.625 -33.34375 C 12.3125 -32.132812 10.441406 -30.289062 9.015625 -27.8125 C 7.597656 -25.332031 6.890625 -22.300781 6.890625 -18.71875 C 6.890625 -15.09375 7.585938 -12.039062 8.984375 -9.5625 C 10.378906 -7.09375 12.234375 -5.25 14.546875 -4.03125 C 16.867188 -2.8125 19.382812 -2.203125 22.09375 -2.203125 Z M 22.09375 -2.203125 "/></g></g></g><g fill="#b1792f" fill-opacity="1"><g transform="translate(891.213832, 74.268613)"><g><path d="M 8.75 -27.53125 C 9.800781 -30.5625 11.710938 -33.039062 14.484375 -34.96875 C 17.265625 -36.894531 20.628906 -37.859375 24.578125 -37.859375 C 28.066406 -37.859375 31.175781 -37.078125 33.90625 -35.515625 C 36.632812 -33.960938 38.765625 -31.738281 40.296875 -28.84375 C 41.835938 -25.957031 42.609375 -22.582031 42.609375 -18.71875 C 42.609375 -14.863281 41.835938 -11.476562 40.296875 -8.5625 C 38.765625 -5.65625 36.632812 -3.410156 33.90625 -1.828125 C 31.175781 -0.242188 28.066406 0.546875 24.578125 0.546875 C 20.671875 0.546875 17.328125 -0.425781 14.546875 -2.375 C 11.773438 -4.320312 9.84375 -6.789062 8.75 -9.78125 L 8.75 17.625 L 5.640625 17.625 L 5.640625 -37.375 L 8.75 -37.375 Z M 39.453125 -18.71875 C 39.453125 -22.113281 38.804688 -25.050781 37.515625 -27.53125 C 36.234375 -30.007812 34.429688 -31.898438 32.109375 -33.203125 C 29.796875 -34.515625 27.125 -35.171875 24.09375 -35.171875 C 21.207031 -35.171875 18.59375 -34.492188 16.25 -33.140625 C 13.90625 -31.796875 12.066406 -29.867188 10.734375 -27.359375 C 9.410156 -24.859375 8.75 -21.976562 8.75 -18.71875 C 8.75 -15.414062 9.410156 -12.515625 10.734375 -10.015625 C 12.066406 -7.515625 13.90625 -5.585938 16.25 -4.234375 C 18.59375 -2.878906 21.207031 -2.203125 24.09375 -2.203125 C 27.125 -2.203125 29.796875 -2.867188 32.109375 -4.203125 C 34.429688 -5.535156 36.234375 -7.4375 37.515625 -9.90625 C 38.804688 -12.382812 39.453125 -15.320312 39.453125 -18.71875 Z M 39.453125 -18.71875 "/></g></g></g><g fill="#b1792f" fill-opacity="1"><g transform="translate(942.228989, 74.268613)"><g><path d="M 39.3125 -21.203125 C 39.3125 -19.546875 39.265625 -18.304688 39.171875 -17.484375 L 6.890625 -17.484375 C 6.972656 -14.128906 7.703125 -11.304688 9.078125 -9.015625 C 10.460938 -6.722656 12.28125 -5.003906 14.53125 -3.859375 C 16.78125 -2.710938 19.234375 -2.140625 21.890625 -2.140625 C 25.566406 -2.140625 28.640625 -3.046875 31.109375 -4.859375 C 33.585938 -6.671875 35.148438 -9.132812 35.796875 -12.25 L 39.03125 -12.25 C 38.300781 -8.445312 36.421875 -5.363281 33.390625 -3 C 30.359375 -0.632812 26.523438 0.546875 21.890625 0.546875 C 18.398438 0.546875 15.28125 -0.226562 12.53125 -1.78125 C 9.78125 -3.34375 7.625 -5.582031 6.0625 -8.5 C 4.5 -11.414062 3.71875 -14.820312 3.71875 -18.71875 C 3.71875 -22.625 4.484375 -26.019531 6.015625 -28.90625 C 7.554688 -31.800781 9.703125 -34.015625 12.453125 -35.546875 C 15.210938 -37.085938 18.359375 -37.859375 21.890625 -37.859375 C 25.472656 -37.859375 28.582031 -37.085938 31.21875 -35.546875 C 33.851562 -34.015625 35.859375 -31.972656 37.234375 -29.421875 C 38.617188 -26.878906 39.3125 -24.140625 39.3125 -21.203125 Z M 36.21875 -20.03125 C 36.351562 -23.332031 35.765625 -26.128906 34.453125 -28.421875 C 33.148438 -30.722656 31.375 -32.4375 29.125 -33.5625 C 26.875 -34.6875 24.441406 -35.25 21.828125 -35.25 C 19.210938 -35.25 16.789062 -34.6875 14.5625 -33.5625 C 12.332031 -32.4375 10.515625 -30.722656 9.109375 -28.421875 C 7.710938 -26.128906 6.972656 -23.332031 6.890625 -20.03125 Z M 36.21875 -20.03125 "/></g></g></g><g fill="#b1792f" fill-opacity="1"><g transform="translate(989.939698, 74.268613)"><g><path d="M 8.75 -29.671875 C 9.664062 -32.421875 11.289062 -34.519531 13.625 -35.96875 C 15.96875 -37.414062 18.953125 -38.140625 22.578125 -38.140625 L 22.578125 -34.90625 L 21.546875 -34.90625 C 17.878906 -34.90625 14.828125 -33.859375 12.390625 -31.765625 C 9.960938 -29.679688 8.75 -26.273438 8.75 -21.546875 L 8.75 0 L 5.640625 0 L 5.640625 -37.375 L 8.75 -37.375 Z M 8.75 -29.671875 "/></g></g></g><g fill="#b1792f" fill-opacity="1"><g transform="translate(1018.718437, 74.268613)"><g><path d="M 10.25 -34.703125 L 10.25 -9.984375 C 10.25 -7.234375 10.753906 -5.335938 11.765625 -4.296875 C 12.773438 -3.265625 14.566406 -2.75 17.140625 -2.75 L 21.34375 -2.75 L 21.34375 0 L 16.65625 0 C 13.394531 0 10.992188 -0.765625 9.453125 -2.296875 C 7.921875 -3.835938 7.15625 -6.398438 7.15625 -9.984375 L 7.15625 -34.703125 L 1.515625 -34.703125 L 1.515625 -37.375 L 7.15625 -37.375 L 7.15625 -46.875 L 10.25 -46.875 L 10.25 -37.375 L 21.34375 -37.375 L 21.34375 -34.703125 Z M 10.25 -34.703125 "/></g></g></g><g fill="#b1792f" fill-opacity="1"><g transform="translate(1047.29063, 74.268613)"><g><path d="M 7.234375 -45.71875 C 6.492188 -45.71875 5.867188 -45.957031 5.359375 -46.4375 C 4.859375 -46.914062 4.609375 -47.566406 4.609375 -48.390625 C 4.609375 -49.171875 4.859375 -49.8125 5.359375 -50.3125 C 5.867188 -50.820312 6.492188 -51.078125 7.234375 -51.078125 C 7.960938 -51.078125 8.578125 -50.820312 9.078125 -50.3125 C 9.585938 -49.8125 9.84375 -49.171875 9.84375 -48.390625 C 9.84375 -47.566406 9.585938 -46.914062 9.078125 -46.4375 C 8.578125 -45.957031 7.960938 -45.71875 7.234375 -45.71875 Z M 8.75 -37.375 L 8.75 0 L 5.640625 0 L 5.640625 -37.375 Z M 8.75 -37.375 "/></g></g></g></g></g></svg>